<?xml version="1.0" encoding="UTF-8"?>
<svg width="284px" height="55px" viewBox="0 0 284 55" version="1.1" xmlns="http://www.w3.org/2000/svg" xmlns:xlink="http://www.w3.org/1999/xlink">
    <!-- Generator: Sketch 50.2 (55047) - http://www.bohemiancoding.com/sketch -->
    <title>autube-logo</title>
    <desc>Created with Sketch.</desc>
    <defs></defs>
    <g id="Page-1" stroke="none" stroke-width="1" fill="none" fill-rule="evenodd">
        <g id="Artboard-2" transform="translate(-169.000000, -198.000000)">
            <g id="autube-logo" transform="translate(169.000000, 198.000000)">
                <g id="np_youtube_897673_000000" transform="translate(0.000000, 7.000000)" fill="#EB0400" fill-rule="nonzero">
                    <path d="M54.5,0.5 L11.5,0.5 C5.4258,0.5 0.5,5.4258 0.5,11.5 L0.5,34.5 C0.5,40.5742 5.4258,45.5 11.5,45.5 L54.5,45.5 C60.5742,45.5 65.5,40.5742 65.5,34.5 L65.5,11.5 C65.5,5.4258 60.5742,0.5 54.5,0.5 Z M35.75,28 L26,33 L26,13 L45.5,23 L35.75,28 Z" id="Shape"></path>
                </g>
                <path d="M104.46875,43.453125 L85.9765625,43.453125 L82.4609375,54 L71.2460938,54 L90.3007812,2.8125 L100.074219,2.8125 L119.234375,54 L108.019531,54 L104.46875,43.453125 Z M88.8242188,34.9101562 L101.621094,34.9101562 L95.1875,15.75 L88.8242188,34.9101562 Z M142.242188,50.1328125 C139.734362,53.1797027 136.265647,54.703125 131.835938,54.703125 C127.757792,54.703125 124.646495,53.5312617 122.501953,51.1875 C120.357411,48.8437383 119.261719,45.4101789 119.214844,40.8867188 L119.214844,15.9609375 L129.375,15.9609375 L129.375,40.5351562 C129.375,44.4961136 131.179669,46.4765625 134.789062,46.4765625 C138.234392,46.4765625 140.601556,45.281262 141.890625,42.890625 L141.890625,15.9609375 L152.085938,15.9609375 L152.085938,54 L142.523438,54 L142.242188,50.1328125 Z M185.449219,11.3554688 L169.769531,11.3554688 L169.769531,54 L159.222656,54 L159.222656,11.3554688 L143.753906,11.3554688 L143.753906,2.8125 L185.449219,2.8125 L185.449219,11.3554688 Z M199.789062,50.1328125 C197.281237,53.1797027 193.812522,54.703125 189.382812,54.703125 C185.304667,54.703125 182.19337,53.5312617 180.048828,51.1875 C177.904286,48.8437383 176.808594,45.4101789 176.761719,40.8867188 L176.761719,15.9609375 L186.921875,15.9609375 L186.921875,40.5351562 C186.921875,44.4961136 188.726544,46.4765625 192.335938,46.4765625 C195.781267,46.4765625 198.148431,45.281262 199.4375,42.890625 L199.4375,15.9609375 L209.632812,15.9609375 L209.632812,54 L200.070312,54 L199.789062,50.1328125 Z M248.074219,35.3320312 C248.074219,41.4258117 246.773451,46.1777173 244.171875,49.5878906 C241.570299,52.9980639 237.937523,54.703125 233.273438,54.703125 C229.148417,54.703125 225.855481,53.1211096 223.394531,49.9570312 L222.9375,54 L213.796875,54 L213.796875,0 L223.957031,0 L223.957031,19.3710938 C226.300793,16.6288925 229.382793,15.2578125 233.203125,15.2578125 C237.843773,15.2578125 241.482409,16.9628736 244.119141,20.3730469 C246.755873,23.7832202 248.074219,28.5820003 248.074219,34.7695312 L248.074219,35.3320312 Z M237.914062,34.59375 C237.914062,30.7499808 237.304694,27.9433682 236.085938,26.1738281 C234.867181,24.404288 233.050793,23.5195312 230.636719,23.5195312 C227.402328,23.5195312 225.175787,24.8437368 223.957031,27.4921875 L223.957031,42.5039062 C225.199225,45.1757946 227.449202,46.5117188 230.707031,46.5117188 C233.988298,46.5117188 236.144526,44.8945474 237.175781,41.6601562 C237.667971,40.1132735 237.914062,37.7578283 237.914062,34.59375 Z M268.339844,54.703125 C262.761691,54.703125 258.220721,52.9922046 254.716797,49.5703125 C251.212873,46.1484204 249.460938,41.5898722 249.460938,35.8945312 L249.460938,34.9101562 C249.460938,31.0898246 250.199211,27.6738432 251.675781,24.6621094 C253.152351,21.6503756 255.244127,19.3300863 257.951172,17.7011719 C260.658217,16.0722575 263.746076,15.2578125 267.214844,15.2578125 C272.417995,15.2578125 276.513657,16.8984211 279.501953,20.1796875 C282.490249,23.4609539 283.984375,28.1132511 283.984375,34.1367188 L283.984375,38.2851562 L259.761719,38.2851562 C260.089845,40.7695437 261.08007,42.7617112 262.732422,44.2617188 C264.384774,45.7617263 266.47655,46.5117188 269.007812,46.5117188 C272.921895,46.5117188 275.980458,45.0937642 278.183594,42.2578125 L283.175781,47.8476562 C281.652336,50.003917 279.589857,51.6855408 276.988281,52.8925781 C274.386706,54.0996154 271.503922,54.703125 268.339844,54.703125 Z M267.179688,23.484375 C265.164052,23.484375 263.529303,24.1640557 262.275391,25.5234375 C261.021478,26.8828193 260.218752,28.8281123 259.867188,31.359375 L274,31.359375 L274,30.5507812 C273.953125,28.30077 273.343756,26.560553 272.171875,25.3300781 C270.999994,24.0996032 269.335948,23.484375 267.179688,23.484375 Z" id="AuTube" fill="#000000"></path>
            </g>
        </g>
    </g>
</svg>